<svg width="30" height="30" viewBox="0 0 64 50" fill="none" xmlns="http://www.w3.org/2000/svg">
<path d="M64 50C48.6774 50 51.0968 50 39 50C26.9032 50 27.3065 50 14 50C14 42.3823 14 32.7586 39 32.7586C64 32.7586 64 42.3823 64 50Z" fill="white"/>
<ellipse cx="39" cy="14.6552" rx="13.7097" ry="14.6552" fill="white"/>
<path d="M18.1655 23.1655H11.8352V16.8338C11.8353 15.8226 11.0123 15 10 15C8.9877 15 8.16481 15.8226 8.16481 16.8338V23.1655H1.83519C0.823276 23.1655 0 23.9888 0 25C0 26.0109 0.822952 26.8338 1.83519 26.8338H8.16481V33.1655C8.16481 34.1771 8.98737 35 10 35C11.0123 35 11.8352 34.177 11.8352 33.1655V26.8338H18.1655C19.1771 26.8338 20 26.0109 20 25C20.0001 23.9888 19.1771 23.1655 18.1655 23.1655Z" fill="white"/>
</svg>
