<svg width="20" height="20" viewBox="0 0 43 38" fill="none" xmlns="http://www.w3.org/2000/svg">
<path d="M42.958 27.819C42.7099 30.2932 41.5308 32.7675 39.5449 34.6381C37.5589 36.5694 35.077 37.7157 32.5327 37.9573C29.8646 38.1985 27.444 37.4142 25.7065 35.7246L24.1551 34.2159L1.81568 12.4311C-0.852422 9.83647 -0.542484 5.37066 2.4983 2.41361C3.92543 1.02577 5.78716 0.180931 7.71073 1.12895e-06H8.26911C10.0066 1.12895e-06 11.6198 0.603632 12.799 1.74981L35.5728 23.8967C37.2484 25.5261 37.1861 28.3018 35.3248 30.1123C34.456 30.9571 33.3388 31.4399 32.1601 31.5001C30.9191 31.5603 29.8019 31.1381 28.9955 30.3535L12.7994 14.6032C12.3029 14.1204 12.3029 13.3964 12.7994 12.9136C13.2958 12.4307 14.0403 12.4307 14.5369 12.9136L30.795 28.7241C31.1054 29.026 31.6019 29.207 32.0984 29.207C32.6568 29.207 33.2151 28.9658 33.6497 28.5431C34.5185 27.6983 34.5804 26.4915 33.8978 25.767L25.0243 17.1378L11 3.49965C10.1932 2.71503 9.07648 2.35298 7.8354 2.47383C6.53204 2.59464 5.22913 3.19785 4.17432 4.16351C2.12654 6.15492 1.81616 9.11208 3.4917 10.8018L27.3825 34.0349C28.5617 35.1815 30.2991 35.7245 32.2227 35.6037C34.2087 35.4227 36.1942 34.5177 37.7455 33.0091C39.2969 31.5005 40.2275 29.6298 40.4136 27.6383C40.5998 25.7677 40.0414 24.1383 38.8003 22.9314L21.7355 6.27594C21.239 5.79312 21.239 5.06913 21.7355 4.58625C21.9835 4.34505 22.2939 4.22424 22.6042 4.22424C22.9146 4.22424 23.2249 4.34505 23.473 4.58625L40.6619 21.1813C42.3375 22.871 43.2063 25.2245 42.9583 27.8191L42.958 27.819Z" fill="#87A4EE"/>
</svg>
