<svg width="20" height="20" viewBox="0 0 39 36" fill="none" xmlns="http://www.w3.org/2000/svg">
<path d="M13.7926 0L11.4145 5.29415H3.3292C1.48459 5.29415 0 6.94705 0 8.99995V32.2942C0 34.3475 1.48493 36 3.3292 36H35.6708C37.5154 36 39 34.3471 39 32.2942V8.99995C39 6.94667 37.5151 5.29415 35.6708 5.29415H27.5855L25.2074 0H13.7926ZM19.4998 10.0589C24.742 10.0589 29.0121 14.812 29.0121 20.6472C29.0121 26.4824 24.742 31.2355 19.4998 31.2355C14.2577 31.2355 9.98759 26.4824 9.98759 20.6472C9.98759 14.812 14.2577 10.0589 19.4998 10.0589ZM19.4998 12.1763C15.2858 12.1763 11.8899 15.9564 11.8899 20.6472C11.8899 25.338 15.2857 29.118 19.4998 29.118C23.7139 29.118 27.1098 25.338 27.1098 20.6472C27.1098 15.9564 23.7143 12.1763 19.4998 12.1763V12.1763Z" fill="#87A4EE"/>
</svg>
