<svg width="20" height="20" viewBox="0 0 40 37" fill="none" xmlns="http://www.w3.org/2000/svg">
<path d="M14.1462 0L11.7072 5.44121H3.41456C1.52265 5.44121 0 7.14003 0 9.24995V33.1913C0 35.3016 1.523 37 3.41456 37H36.5854C38.4773 37 40 35.3012 40 33.1913V9.24995C40 7.13964 38.477 5.44121 36.5854 5.44121H28.2928L25.8538 0H14.1462ZM19.9998 10.3383C25.3764 10.3383 29.756 15.2234 29.756 21.2207C29.756 27.218 25.3764 32.1031 19.9998 32.1031C14.6232 32.1031 10.2437 27.218 10.2437 21.2207C10.2437 15.2234 14.6232 10.3383 19.9998 10.3383ZM19.9998 12.5146C15.6778 12.5146 12.1947 16.3996 12.1947 21.2207C12.1947 26.0418 15.6777 29.9268 19.9998 29.9268C24.322 29.9268 27.8049 26.0418 27.8049 21.2207C27.8049 16.3996 24.3223 12.5146 19.9998 12.5146V12.5146Z" fill="white"/>
</svg>
