<svg width="25" height="25" viewBox="0 0 46 30" fill="none" xmlns="http://www.w3.org/2000/svg">
<path d="M1.10839 29.2263H38.8921C39.5014 29.2263 39.9999 28.6852 39.9999 28.0239V6.72632C39.9999 6.72632 45.6087 -3.62396e-05 44.9994 -3.62396e-05H32.3546H27.9999H22.9557H1.10765C0.498362 -3.62396e-05 -0.000114441 0.541044 -0.000114441 1.20241V28.0239C0.000616948 28.6852 0.499091 29.2263 1.10839 29.2263ZM17.9995 19.2263C8.99951 19.2263 8.99951 19.804 8.99951 18.2263C8.99951 16.6491 8.99951 16.2263 17.9995 16.2263C25.9995 16.2263 25.9995 16.1495 25.9995 17.7263C25.9995 19.3039 25.9995 19.2263 17.9995 19.2263ZM17.9995 9.22632C29.4995 9.22632 29.4995 9.14947 29.4995 10.7263C29.4995 12.3036 29.4995 12.2263 17.9995 12.2263C8.99951 12.2263 8.99951 12.304 8.99951 10.7263C8.99951 9.14947 8.99951 9.22632 17.9995 9.22632Z" fill="white"/>
</svg>
