<svg width="20" height="20" viewBox="0 0 40 40" fill="none" xmlns="http://www.w3.org/2000/svg">
<path d="M35.09 35.6865C37.3756 33.3264 38.7303 30.1525 38.7303 26.6531C38.7303 23.0316 37.2064 19.7357 34.7513 17.3755C33.6931 25.88 26.074 32.4719 16.8464 32.4312H12.4019C14.6453 36.948 19.3859 40.0405 24.9311 39.9998L40 39.9589L35.09 35.6865Z" fill="#F15C6D"/>
<path d="M17.3968 0.000180884C8.63484 -0.0404079 1.52367 6.75499 1.48134 15.178C1.48134 19.1657 3.04742 22.7873 5.67193 25.5136L0 30.3964L17.27 30.437C26.0312 30.4782 33.1431 23.6825 33.1847 15.2592C33.1847 6.83613 26.1158 5.7361e-06 17.3962 5.7361e-06L17.3968 0.000180884ZM22.0953 19.3285C21.5027 19.8982 20.6136 19.8982 20.0211 19.3285L17.3543 16.7649L14.6876 19.3285C14.095 19.8982 13.2059 19.8982 12.6134 19.3285C12.0208 18.7588 12.0208 17.9042 12.6134 17.3346L15.2802 14.7709L12.6134 12.2073C12.0208 11.6377 12.0208 10.783 12.6134 10.2134C13.206 9.64378 14.095 9.64372 14.6876 10.2134L17.3543 12.777L20.0211 10.2134C20.6137 9.64372 21.5027 9.64372 22.0953 10.2134C22.6878 10.783 22.6878 11.6377 22.0953 12.2073L19.4285 14.7709L22.0953 17.3346C22.6456 17.9042 22.6456 18.7994 22.0953 19.3285V19.3285Z" fill="#F15C6D"/>
</svg>
