<svg width="20" height="20" viewBox="0 0 40 40" fill="none" xmlns="http://www.w3.org/2000/svg">
<path d="M26.7389 9.48714V12.2254C26.7389 17.4613 22.0628 21.7126 16.3162 21.7126C10.5696 21.7126 5.89355 17.4611 5.89355 12.2254V9.48714C5.89355 4.2563 10.5697 0 16.3162 0C22.0629 0.000357691 26.7389 4.25639 26.7389 9.48714Z" fill="#F15C6D"/>
<path d="M32.1128 25.6406C27.7565 25.6406 24.2256 28.8551 24.2256 32.8199C24.2256 36.7852 27.757 39.9992 32.1128 39.9992C36.4691 39.9992 40.0001 36.7847 40.0001 32.8199C40.0004 28.8546 36.469 25.6406 32.1128 25.6406V25.6406ZM37.1835 33.8455H27.0425V31.7944H37.1835V33.8455Z" fill="#F15C6D"/>
<path d="M21.972 32.8203C21.972 29.2167 24.2573 26.0978 27.5733 24.5779C26.3452 23.7061 24.9485 23.0143 23.4257 22.564C21.3692 23.7372 18.9298 24.414 16.3157 24.414C13.707 24.414 11.2733 23.7423 9.22266 22.5736C3.86464 24.1686 0 28.6769 0 33.9829V38.4961C0 39.3282 0.754929 40 1.69026 40H25.753C23.4504 38.3069 21.972 35.7192 21.972 32.8207V32.8203Z" fill="#F15C6D"/>
</svg>
