<svg width="20" height="20" viewBox="0 0 8 32" fill="none" xmlns="http://www.w3.org/2000/svg">
<path fill-rule="evenodd" clip-rule="evenodd" d="M8 16C8 17.7672 6.20891 19.2 4 19.2C1.79109 19.2 0 17.7672 0 16C0 14.2329 1.79109 12.8 4 12.8C6.20891 12.8 8 14.2329 8 16Z" fill="#87A4EE"/>
<path fill-rule="evenodd" clip-rule="evenodd" d="M8 3.2C8 4.96713 6.20891 6.4 4 6.4C1.79109 6.4 0 4.96713 0 3.2C0 1.43287 1.79109 0 4 0C6.20891 0 8 1.43287 8 3.2Z" fill="#87A4EE"/>
<path fill-rule="evenodd" clip-rule="evenodd" d="M8 28.8001C8 30.5672 6.20891 32.0001 4 32.0001C1.79109 32.0001 0 30.5672 0 28.8001C0 27.033 1.79109 25.6001 4 25.6001C6.20891 25.6001 8 27.033 8 28.8001Z" fill="#87A4EE"/>
</svg>
