<svg width="20" height="20" viewBox="0 0 40 40" fill="none" xmlns="http://www.w3.org/2000/svg">
<path d="M20 0C8.97778 0 0 8.97778 0 20C0 31.0222 8.97778 40 20 40C31.0222 40 40 31.0222 40 20C40 8.97778 31.0222 0 20 0ZM20 36.4444C10.9333 36.4444 3.55556 29.0666 3.55556 20C3.55556 10.9334 10.9334 3.55556 20 3.55556C29.0666 3.55556 36.4444 10.9334 36.4444 20C36.4444 29.0666 29.0666 36.4444 20 36.4444V36.4444Z" fill="#87A4EE"/>
<path d="M22.2223 9.24444C22.2223 10.4718 21.2274 11.4667 20.0001 11.4667C18.7727 11.4667 17.7778 10.4718 17.7778 9.24444C17.7778 8.01706 18.7727 7.02222 20.0001 7.02222C21.2274 7.02222 22.2223 8.01706 22.2223 9.24444Z" fill="#87A4EE"/>
<path d="M20.0003 14.8C19.0225 14.8 18.2227 15.5998 18.2227 16.5776V31.2443C18.2227 32.2221 19.0225 33.0219 20.0003 33.0219C20.9781 33.0219 21.7779 32.2221 21.7779 31.2443V16.5776C21.7779 15.5555 20.9781 14.8 20.0003 14.8Z" fill="#87A4EE"/>
</svg>
