<svg width="20" height="20" viewBox="0 0 30 42" fill="none" xmlns="http://www.w3.org/2000/svg">
<path d="M15.2149 0.00399073H15.1494C13.8598 -0.0339358 12.5154 0.211403 11.1164 0.739998C8.12201 1.89165 6.62466 4.19486 6.62466 7.64971V24.3293C6.62466 24.5746 6.64661 24.82 6.69016 25.0657C6.93057 27.8596 8.37346 29.7663 11.0184 30.7859C12.4174 31.3145 13.7614 31.5599 15.0509 31.5223H15.1168H15.1823H15.2478H15.3133C16.6029 31.5599 17.9473 31.3145 19.3463 30.7859C22.3407 29.6343 23.838 27.3311 23.838 23.8762L23.871 6.46036C23.5651 3.66603 22.0896 1.75948 19.4447 0.739816C18.0457 0.211211 16.7013 -0.0341179 15.4117 0.00380863H15.3462H15.2807H15.2149L15.2149 0.00399073ZM29.6741 20.7613L28.9854 20.45C28.3081 20.3176 27.39 20.4685 26.2315 20.9031L26.3625 22.517C26.3844 23.3478 26.3189 24.1501 26.1659 24.9241C26.0785 25.3773 25.9691 25.8304 25.8381 26.2835C25.1168 28.6057 23.7395 30.4463 21.7067 31.8054C20.3952 32.6742 18.8107 33.3347 16.9525 33.7879H13.051C11.1939 33.3277 9.60944 32.6572 8.29682 31.7774C6.27216 30.4397 4.8948 28.6086 4.16543 26.2836C4.02674 25.8396 3.91769 25.3864 3.83755 24.9242C3.69264 24.1479 3.62714 23.3456 3.64104 22.5171L3.77204 20.9032C2.61352 20.4686 1.69538 20.3177 1.01809 20.4501L0.329405 20.7614C0.0388528 22.2362 -0.0595756 23.6237 0.034468 24.9242C0.117901 25.9719 0.325752 26.9631 0.657279 27.8978C1.02869 28.955 1.44403 29.7384 1.90329 30.2481C3.4709 32.6434 5.60209 34.4654 8.29683 35.7134C8.53286 35.8209 8.77327 35.9248 9.01808 36.0251C10.5265 36.6482 11.8705 37.0069 13.051 37.1013V39.3102H16.9525V37.1013C18.1331 37.0069 19.4771 36.6482 20.9855 36.0251C21.2259 35.9307 21.4663 35.8268 21.7067 35.7134C24.3952 34.4674 26.5264 32.6457 28.1003 30.2481C28.5595 29.7384 28.9748 28.955 29.3463 27.8978C29.6742 26.9536 29.8816 25.9624 29.9691 24.9242C30.0565 23.6216 29.9585 22.2341 29.6742 20.7614L29.6741 20.7613ZM23.8709 39.31C24.2068 39.3171 24.5021 39.4301 24.7561 39.6497C25.0184 39.8761 25.1494 40.1404 25.1494 40.4426V40.8673C25.1494 41.1696 25.0184 41.4339 24.7561 41.6602C24.5021 41.8795 24.2068 41.9929 23.8709 42H24.1003C24.4501 42 24.7561 41.8866 25.0184 41.6602C25.2808 41.4339 25.4118 41.1696 25.4118 40.8673V40.4426C25.4118 40.1404 25.2808 39.8761 25.0184 39.6497C24.7561 39.423 24.4501 39.31 24.1003 39.31H23.8709ZM4.85419 40.4426V40.8673C4.85419 41.1695 4.98519 41.4339 5.24757 41.6602C5.50152 41.8795 5.79683 41.9929 6.13275 42H23.8707C24.2066 41.9929 24.502 41.8795 24.7559 41.6602C25.0183 41.4338 25.1493 41.1695 25.1493 40.8673V40.4426C25.1493 40.1404 25.0183 39.8761 24.7559 39.6497C24.502 39.4301 24.2066 39.3171 23.8707 39.31H6.13275C5.79683 39.3171 5.50152 39.4301 5.24757 39.6497C4.98519 39.8761 4.85419 40.1404 4.85419 40.4426V40.4426Z" fill="white"/>
</svg>
