<svg width="20" height="20" viewBox="0 0 32 33" fill="none" xmlns="http://www.w3.org/2000/svg">
<path d="M21.5737 4.94137C21.2237 4.58994 20.6562 4.58994 20.3062 4.94137L1.77167 23.5699C1.63721 23.705 1.54913 23.8797 1.52044 24.0685L0.0197434 31.0512C-0.0436488 31.35 0.0477691 31.6608 0.262972 31.8768C0.477836 32.0927 0.786789 32.1846 1.08407 32.1209L7.87 30.6605C8.11255 30.6672 8.34677 30.5713 8.51593 30.3963L27.0504 11.7678C27.4001 11.4157 27.4001 10.8456 27.0504 10.4938L21.5737 4.94137Z" fill="#87A4EE"/>
<path d="M31.7378 5.77664L26.2434 0.254015C25.888 -0.0846717 25.3308 -0.0846717 24.9755 0.254015L22.4405 2.80191C22.0908 3.15402 22.0908 3.72407 22.4405 4.07586L27.9352 9.59848C28.2852 9.94992 28.8524 9.94992 29.2027 9.59848L31.7378 7.05058C32.0874 6.69848 32.0874 6.12843 31.7378 5.77664Z" fill="#87A4EE"/>
</svg>
