<svg width="20" height="20" viewBox="0 0 36 36" fill="none" xmlns="http://www.w3.org/2000/svg">
<path fill-rule="evenodd" clip-rule="evenodd" d="M11.5187 1.08653L14.6797 9.02324C15.3468 10.6887 13.8075 11.4853 12.5981 12.2674C11.6771 12.8627 10.4582 13.6492 9.51703 14.4304C7.68725 15.9514 20.0481 28.3148 21.5706 26.4831C22.3514 25.542 23.1379 24.3235 23.7337 23.4032C24.4566 22.2839 25.3212 20.6608 26.9111 21.2874L34.9145 24.4835C35.6476 24.7763 36.1071 25.5455 35.9785 26.3561C34.7142 34.2865 30.1675 36.715 24.5813 35.8264C14.7385 34.2582 1.74121 21.2626 0.174064 11.4199C-0.712638 5.8528 1.6946 1.31968 9.56029 0.0376466C10.3661 -0.13429 11.2022 0.29435 11.5187 1.08567L11.5187 1.08653Z" fill="#87A4EE"/>
</svg>
