<svg width="20" height="20" viewBox="0 0 35 35" fill="none" xmlns="http://www.w3.org/2000/svg">
<path d="M14.0965 0.000260278C6.32836 0.000260278 0 6.32865 0 14.0968C0 21.865 6.32871 28.1934 14.0965 28.1934C17.4562 28.1934 20.5422 27.0059 22.9681 25.0338L32.5073 34.573C33.0766 35.1423 34.0036 35.1423 34.573 34.573C35.1423 34.0037 35.1423 33.0919 34.573 32.5222L25.0338 22.983C27.0097 20.5561 28.1934 17.4599 28.1934 14.0966C28.1934 6.32839 21.8647 0 14.0969 0L14.0965 0.000260278ZM14.0965 2.9168C20.2882 2.9168 25.2763 7.90515 25.2763 14.0967C25.2763 20.2882 20.288 25.2765 14.0965 25.2765C7.90503 25.2765 2.9167 20.2882 2.9167 14.0967C2.9167 7.90515 7.90503 2.9168 14.0965 2.9168V2.9168Z" fill="#87A4EE"/>
</svg>
