<svg width="20" height="20" viewBox="0 0 41 40" fill="none" xmlns="http://www.w3.org/2000/svg">
<path d="M11 26H29L27 28L23 29H17L13 28L11 26Z" fill="#8696A0"/>
<path d="M20.5 0C9.17818 0 0 8.95432 0 20C0 31.0457 9.17818 40 20.5 40C31.8218 40 41 31.0457 41 20C41 8.95432 31.8218 0 20.5 0V0ZM12.3954 11.1628C14.2384 11.1628 15.7326 12.6205 15.7326 14.4185C15.7326 16.2165 14.2384 17.6743 12.3954 17.6743C10.5525 17.6743 9.05831 16.2165 9.05831 14.4185C9.05831 12.6205 10.5525 11.1628 12.3954 11.1628ZM28.6047 11.1628C30.4477 11.1628 31.9419 12.6205 31.9419 14.4185C31.9419 16.2165 30.4477 17.6743 28.6047 17.6743C26.7618 17.6743 25.2676 16.2165 25.2676 14.4185C25.2676 12.6205 26.7618 11.1628 28.6047 11.1628ZM7.15125 24.6512H33.8489C31.9022 30.067 26.6612 33.9535 20.5001 33.9535C14.3393 33.9535 9.09824 30.067 7.15125 24.6512Z" fill="#87A4EE"/>
</svg>
