<svg width="20" height="20" viewBox="0 0 40 27" fill="none" xmlns="http://www.w3.org/2000/svg">
<path d="M24.9847 27H1.68199C0.752546 27 0 26.111 0 25.0131V1.98685C0 0.888947 0.752568 0 1.68199 0H24.9847C25.9141 0 26.6667 0.888973 26.6667 1.98685V25.0131C26.6667 26.1111 25.9141 27 24.9847 27Z" fill="#87A4EE"/>
<path d="M29.5007 20.7987L37.5655 25.562C38.6837 26.2235 40 25.2627 40 23.7846V3.21278C40 1.73675 38.6837 0.775919 37.5659 1.43537L29.5012 6.19865C28.9314 6.53866 28.5713 7.22473 28.5713 7.97863V19.0239C28.5713 19.7758 28.9314 20.4619 29.5007 20.7994L29.5007 20.7987Z" fill="#87A4EE"/>
</svg>
